# xmcd
#
# Track frame offsets: 
#        150
#        16297
#        44734
#        59679
#        81405
#        103436
#        119121
#        144757
#        163396
#
# Disc length: 2360 seconds
#
# Revision: 0
# Processed by: cddbd v1.5.2PL0 Copyright (c) Steve Scherf et al.
# Submitted via: ExactAudioCopy v0.99pb5
#
DISCID=8c093609
DTITLE=David More - From The Other Side Of The River
DYEAR=2009
DGENRE=Blues
TTITLE0=The Sun Ain't Shining
TTITLE1=Foxy Lady
TTITLE2=Seafood Soup
TTITLE3=Right Back On You
TTITLE4=From The Other Side Of The River
TTITLE5=Come Home
TTITLE6=Shame Shame Shame
TTITLE7=Going High 
TTITLE8=You Are Not Good (Bonus Track)
EXTD=
EXTT0=
EXTT1=
EXTT2=
EXTT3=
EXTT4=
EXTT5=
EXTT6=
EXTT7=
EXTT8=
PLAYORDER=
